<svg width="481pt" height="291pt" viewBox="0 0 481 291" version="1.1" xmlns="http://www.w3.org/2000/svg" xmlns:xlink="http://www.w3.org/1999/xlink">
  <g id="surface2">
    <path style=" stroke:none;fill-rule:evenodd;fill:rgb(20.392157%,20%,20%);fill-opacity:1;" d="M 240.500000 46.148438 L 211.601562 73.000000 L 220.851562 81.550781 L 240.500000 63.300781 L 318.750000 135.949219 L 337.199219 135.949219 L 240.500000 46.148438 "/>
    <path style=" stroke:none;fill-rule:evenodd;fill:rgb(76.078431%,15.686275%,17.647059%);fill-opacity:1;" d="M 182.699219 46.148438 L 86.000000 135.949219 L 104.449219 135.949219 L 182.699219 63.300781 L 260.949219 135.949219 L 279.398438 135.949219 L 182.699219 46.148438 "/>
    <path style=" stroke:none;fill-rule:evenodd;fill:rgb(76.078431%,15.686275%,17.647059%);fill-opacity:1;" d="M 202.800781 97.449219 L 183.898438 97.449219 L 183.898438 115.500000 L 202.800781 115.500000 L 202.800781 97.449219 "/>
    <path style=" stroke:none;fill-rule:evenodd;fill:rgb(76.078431%,15.686275%,17.647059%);fill-opacity:1;" d="M 183.898438 136.000000 L 202.800781 136.000000 L 202.800781 117.949219 L 183.898438 117.949219 L 183.898438 136.000000 "/>
    <path style=" stroke:none;fill-rule:evenodd;fill:rgb(76.078431%,15.686275%,17.647059%);fill-opacity:1;" d="M 181.500000 97.449219 L 162.601562 97.449219 L 162.601562 115.500000 L 181.500000 115.500000 L 181.500000 97.449219 "/>
    <path style=" stroke:none;fill-rule:evenodd;fill:rgb(76.078431%,15.686275%,17.647059%);fill-opacity:1;" d="M 162.601562 136.000000 L 181.500000 136.000000 L 181.500000 117.949219 L 162.601562 117.949219 L 162.601562 136.000000 "/>
    <path style=" stroke:none;fill-rule:evenodd;fill:rgb(40.392157%,40.392157%,40.392157%);fill-opacity:1;" d="M 298.250000 46.148438 L 269.351562 73.000000 L 278.601562 81.550781 L 298.250000 63.300781 L 376.500000 135.949219 L 394.949219 135.949219 L 298.250000 46.148438 "/>
  </g>
  <g id="surface4">
    <text style="fill:rgb(52,51,51)" font-family="Kabel Bk BT" font-size="50" transform="matrix(1,0,0,1,132.052736,191.8)" ><![CDATA[Hilbury lets]]></text>
    <text style="fill:rgb(194,40,45)" font-family="Kabel Bk BT" font-size="35" transform="matrix(1,0,0,1,63.551756,243.9)" ><![CDATA[Lettings and management]]></text>
  </g>
</svg>